<svg width="32" height="32" viewBox="0 0 32 32" fill="none" xmlns="http://www.w3.org/2000/svg">
<path d="M17.2625 4.0625C17.5533 3.30751 18.0661 2.65843 18.7334 2.20094C19.4007 1.74344 20.191 1.49905 21 1.5" stroke="#00D1FF" stroke-width="2" stroke-linecap="round" stroke-linejoin="round"/>
<path d="M27.3125 20.3625C25.7375 24.2125 22.8875 27 20.5 27H11.5C8 27 3.5 21 3.5 14.5C3.50052 13.0524 3.91995 11.6359 4.70768 10.4214C5.49542 9.2069 6.61779 8.24632 7.93936 7.65558C9.26093 7.06484 10.7252 6.86918 12.1555 7.09221C13.5858 7.31524 14.921 7.94743 16 8.91249V8.91249C16.7637 8.22826 17.6597 7.70791 18.6325 7.38359C19.6052 7.05928 20.6342 6.93789 21.6557 7.02692C22.6773 7.11595 23.6697 7.41352 24.5717 7.90123C25.4737 8.38895 26.2661 9.05645 26.9 9.86249V9.86249C25.9813 10.4172 25.2282 11.2082 24.7192 12.153C24.2102 13.0979 23.9639 14.1619 24.006 15.2343C24.0482 16.3067 24.3772 17.3481 24.9587 18.2501C25.5403 19.152 26.3531 19.8815 27.3125 20.3625V20.3625Z" stroke="#00D1FF" stroke-width="2" stroke-linecap="round" stroke-linejoin="round"/>
</svg>
