<svg width="33" height="33" viewBox="0 0 33 33" fill="none" xmlns="http://www.w3.org/2000/svg">
<path d="M4.125 27.8438C4.125 27.8438 8.25 20.625 8.25 12.375C8.25 10.187 9.11919 8.08854 10.6664 6.54137C12.2135 4.99419 14.312 4.125 16.5 4.125C18.688 4.125 20.7865 4.99419 22.3336 6.54137C23.8808 8.08854 24.75 10.187 24.75 12.375C24.75 20.625 28.875 27.8438 28.875 27.8438" stroke="#00D1FF" stroke-width="2" stroke-linecap="round" stroke-linejoin="round"/>
<path d="M12.8906 15.4688C13.7449 15.4688 14.4375 14.7762 14.4375 13.9219C14.4375 13.0676 13.7449 12.375 12.8906 12.375C12.0363 12.375 11.3438 13.0676 11.3438 13.9219C11.3438 14.7762 12.0363 15.4688 12.8906 15.4688Z" fill="#00D1FF"/>
<path d="M20.1094 15.4688C20.9637 15.4688 21.6562 14.7762 21.6562 13.9219C21.6562 13.0676 20.9637 12.375 20.1094 12.375C19.2551 12.375 18.5625 13.0676 18.5625 13.9219C18.5625 14.7762 19.2551 15.4688 20.1094 15.4688Z" fill="#00D1FF"/>
<path d="M20.625 18.5625L16.5 20.625L12.375 18.5625" stroke="#00D1FF" stroke-width="2" stroke-linecap="round" stroke-linejoin="round"/>
<path d="M11.1375 27.8437C11.6827 26.9045 12.4649 26.125 13.406 25.5831C14.3471 25.0412 15.4141 24.756 16.5 24.756C17.586 24.756 18.6529 25.0412 19.594 25.5831C20.5351 26.125 21.3174 26.9045 21.8625 27.8437" stroke="#00D1FF" stroke-width="2" stroke-linecap="round" stroke-linejoin="round"/>
</svg>
